<svg width="58" height="48" viewBox="0 0 58 48" fill="none" xmlns="http://www.w3.org/2000/svg">
<path d="M44.0611 12.2034C43.2819 12.5542 42.8617 12.9075 42.5026 12.8551C42.2083 12.8125 41.986 12.285 41.7319 11.9732C42.0825 11.7003 42.4098 11.2654 42.7921 11.2093C43.0559 11.1704 43.3967 11.6576 44.0611 12.2034Z" fill="#E3572D"/>
<path d="M13.5059 8.34047C24.0098 5.53736 34.3744 2.7708 44.7391 0.00546265C44.8099 0.0895193 44.882 0.172358 44.9529 0.256414C38.1644 8.99343 31.3759 17.7292 24.4238 26.677C25.6196 26.7355 26.5515 26.7806 27.6739 26.8366C27.6739 30.2939 27.724 33.6598 27.6019 37.0196C27.5884 37.3802 26.582 37.7067 25.9249 38.1185C21.7148 28.0207 17.6537 18.2872 13.5059 8.34047Z" fill="#E3572D"/>
<path d="M16.9745 48.0055C11.3475 37.5398 5.81467 27.2508 0.176758 16.7644C2.24578 16.3124 4.1084 15.9056 6.17498 15.4536C5.35543 13.9077 4.61527 12.5116 3.75053 10.8817C5.53986 10.4943 7.18018 10.1385 9.02935 9.73897C8.32706 8.14068 7.6956 6.70562 6.92002 4.94287C9.71455 5.16946 12.2013 5.37168 15.1204 5.60923C13.4386 6.00881 12.1524 6.31458 10.644 6.67273C10.815 7.22093 10.9249 7.71552 11.1179 8.17723C15.0373 17.5307 18.9824 26.8743 22.8725 36.24C23.3025 37.2754 23.9315 37.6994 25.0038 37.8699C27.9755 38.3438 30.9312 38.9212 34.0348 39.8288C28.4188 42.5211 22.8017 45.2121 16.9745 48.0055ZM4.33313 17.8108C9.07454 27.2154 13.7085 36.4081 18.4157 45.7457C20.9989 44.6334 23.4038 43.5992 25.8087 42.5637C25.7648 42.4455 25.7208 42.3262 25.6768 42.208C23.6652 42.7099 21.6524 43.2118 19.5052 43.7478C15.2633 34.7245 11.0495 25.7609 6.79056 16.7023C5.8904 17.1079 5.2223 17.4101 4.33313 17.8108ZM29.8992 40.0932C29.8686 39.9653 29.8381 39.8386 29.8076 39.7107C27.559 39.4975 25.3141 39.2221 23.0606 39.0979C21.9773 39.0382 21.4533 38.5704 21.0527 37.6214C17.5607 29.3692 14.0334 21.1317 10.5097 12.8929C10.2226 12.2205 9.87822 11.5724 9.53989 10.8683C8.74477 11.1277 8.10843 11.3348 7.36827 11.5748C7.66751 12.2765 7.8837 12.8174 8.12553 13.3461C11.9668 21.7408 15.8117 30.1343 19.653 38.529C20.9488 41.3613 20.9476 41.3918 24.0866 40.9922C26.031 40.7461 27.962 40.3965 29.8992 40.0932Z" fill="#C2DF93"/>
<path d="M57.28 16.3563C53.1126 12.0755 48.9452 7.79591 44.7021 3.43837C45.2054 2.72937 45.6536 2.09833 46.2655 1.23584C50.1324 6.32553 53.8515 11.2203 57.5707 16.1151C57.4742 16.1955 57.3777 16.2759 57.28 16.3563Z" fill="#E3572D"/>
<path d="M41.793 15.0967C41.793 14.5972 41.793 14.194 41.793 13.636C42.3169 13.5983 42.8104 13.5617 43.327 13.5252C43.8742 15.0479 43.3258 15.4512 41.793 15.0967Z" fill="#E3572D"/>
<path d="M44.2734 13.0001C44.2734 12.229 44.2734 11.8136 44.2734 11.2739C44.7644 11.2276 45.2163 11.185 45.86 11.1241C45.86 11.6966 46.0408 12.3131 45.8136 12.5616C45.5449 12.8576 44.9244 12.8369 44.2734 13.0001Z" fill="#E3572D"/>
<path d="M45.7976 15.1466C45.3042 15.1466 44.8547 15.1466 44.415 15.1466C44.1463 13.5471 44.1463 13.5471 45.7976 13.6226C45.7976 14.099 45.7976 14.5826 45.7976 15.1466Z" fill="#E3572D"/>
</svg>
